<svg xmlns="http://www.w3.org/2000/svg" viewBox="0 0 48 48">
  <!-- Google Logo: Official G color (Blue, Red, Yellow, Blue) -->
  
  <!-- Background circle for button -->
  <rect width="48" height="48" fill="none"/>
  
  <!-- Blue left part -->
  <path d="M24 9c-8.284 0-15 6.716-15 15s6.716 15 15 15c4.074 0 7.777-1.621 10.453-4.235l-4.25-3.26c-1.944 1.44-4.33 2.296-6.203 2.296-5.16 0-9.352-4.192-9.352-9.352 0-5.16 4.192-9.352 9.352-9.352 2.948 0 5.53 1.361 7.237 3.502h-7.237v4.597h11.956c.132-.768.206-1.562.206-2.378 0-6.876-5.576-12.422-12.422-12.422z" fill="#4285F4"/>
  
  <!-- Red top-right -->
  <path d="M24 24v12c5.16 0 9.352-4.192 9.352-9.352h-9.352z" fill="#EA4335"/>
  
  <!-- Yellow bottom-left -->
  <path d="M24 24H9.352c0 5.16 4.192 9.352 9.352 9.352v-9.352z" fill="#FBBC04"/>
  
  <!-- Green bottom-right -->
  <path d="M24 24h9.352v9.352c-2.707 2.187-6.103 3.5-9.968 3.5-8.284 0-15-6.716-15-15s6.716-15 15-15v4.597c-5.16 0-9.352 4.192-9.352 9.352 0 5.16 4.192 9.352 9.352 9.352z" fill="#34A853"/>
</svg>
