<svg viewBox="0 0 24 24" xmlns="http://www.w3.org/2000/svg">
  <!-- Google 'G' Logo -->
  <circle cx="12" cy="12" r="10" fill="none" stroke="#4285F4" stroke-width="1.5"/>
  <path
    d="M 12 6 C 14.206 6 15.966 7.15 16.917 8.818 M 16.917 8.818 L 18.474 7.312 C 17.193 6.019 15.409 5 13.324 5 C 10.273 5 7.679 6.923 6.932 9.535 M 16.917 8.818 L 17.083 10 L 15.5 10 C 15.492 9.999 15.404 9.972 15.209 9.972 L 12 10 L 12 14.164 L 14.97 14.164 C 15.161 14.164 15.233 14.142 15.334 14.124 M 6.932 9.535 L 5.48 8.192 C 4.747 9.593 4.5 11.205 4.5 12 C 4.5 16.42 8.059 20 12 20 C 13.947 20 15.711 19.327 16.972 18.184 M 16.972 18.184 L 15.467 16.693 C 14.579 17.347 13.446 17.834 12 17.834 C 9.851 17.834 8.115 16.256 8.115 14.164 M 8.115 14.164 C 8.115 12.071 9.851 10.492 12 10.492"
    fill="none"
    stroke="#4285F4"
    stroke-width="2"
    stroke-linecap="round"
    stroke-linejoin="round"
  />
</svg>
